<?xml version="1.0" standalone="yes"?>
<svg xmlns="http://www.w3.org/2000/svg" width="924" height="524">
<path style="fill:#000000; stroke:none;" d="M0 0L0 524L312 524L400 524L425 524C428.458 524 433.404 524.876 436.621 523.397C440.446 521.637 443.367 515.363 445.656 512C452.192 502.395 458.555 492.667 465 483C485.542 452.187 509.643 422.902 534 395C530.426 404.82 524.278 413.834 519.309 423C510.023 440.128 500.498 457.147 490.715 474C486.401 481.432 480.064 487.916 477 496C547.113 473.581 618.492 454.87 689 433.72C708.954 427.734 728.975 421.881 749 416.141C757.472 413.713 770.535 412.402 777.671 407.146C783.147 403.113 785.695 393.848 788.781 388C796.676 373.038 804.261 357.88 812.309 343C831.987 306.615 850.476 269.586 869.781 233C881.238 211.286 894.561 189.671 904 167C889.492 155.946 876.534 142.394 863 130.17C837.357 107.008 811.934 83.5469 786 60.7145C775.22 51.2241 764.659 41.4575 754 31.8302C749.877 28.1058 745.387 22.1054 740 20.1975C734.533 18.2611 725.124 24.0395 720 25.9499C701.987 32.6654 683.927 39.2449 666 46.1891C629.696 60.2513 592.079 71.497 555 83.3441C527.336 92.183 499.943 102.07 472 110C480.603 104.12 491.447 100.841 501 96.7191C520.28 88.4006 539.706 80.4317 559 72.1505C600.311 54.4195 641.889 37.6494 684 21.9499C702.781 14.948 721.667 6.27692 741 1C735.293 -1.3949 727.154 0 721 0L677 0L526 0L0 0z"/>
<path style="fill:#ffffff; stroke:none;" d="M472 109C477.862 110.338 485.407 106.131 491 104.344C505.325 99.7671 519.731 95.4229 534 90.6667C582.097 74.6345 630.495 59.6604 678 41.9499C691.998 36.7311 705.988 31.4993 720 26.3187C725.03 24.459 732.568 19.812 738 20.3604C743.366 20.902 748.315 27.4962 752 30.9113C762.211 40.3742 772.751 49.4895 783 58.9143C809.099 82.916 835.686 106.402 862 130.17C869.67 137.097 877.487 143.941 885 151.035C890.824 156.535 896.867 163.3 904 167C893.417 185.132 884.371 204.342 874.742 223C854.21 262.778 833.603 302.626 812.309 342C804.261 356.88 796.676 372.038 788.781 387C785.557 393.109 783.032 401.906 777.671 406.487C771.661 411.623 759.5 412.839 752 415C732.642 420.579 713.358 426.421 694 432C643.608 446.523 593.232 461.213 543 476.28C521.371 482.768 497.733 487.077 477 496C480.704 489.346 485.55 483.465 489.539 477C500.153 459.8 509.68 441.761 519.309 424C524.262 414.863 531.667 405.197 534 395C523.826 403.209 515.759 415.801 507.6 426C491.616 445.979 475.865 465.703 461.667 487C456.555 494.667 451.48 502.359 446.33 510C443.255 514.562 439.688 518.712 438 524C450.105 522.369 462.338 517.611 474 514.025C490.581 508.926 507.318 504.178 524 499.421C581.416 483.052 638.933 466.572 696 449.025C717.898 442.291 739.981 436.038 762 429.709L780 424.421C783.402 423.45 787.683 422.792 790.363 420.298C794.074 416.843 796 410.464 798.248 406C802.627 397.303 807.14 388.517 811.861 380C831.148 345.207 849.356 309.533 867.248 274C880.446 247.788 894.523 221.956 908.219 196L919.219 175C920.718 172.159 923.407 168.335 923.292 165C923.179 161.723 920.239 159.303 917.995 157.285C913.018 152.81 907.91 148.461 903 143.911C882.904 125.288 862.564 106.819 842 88.7145C817.714 67.3328 794.432 44.7905 770 23.5756C764.215 18.5524 758.62 13.294 753 8.08875C750.267 5.55731 746.76 1.65796 743 0.784729C737.423 -0.510559 728.202 5.11096 723 7.05017C706.336 13.2625 689.682 19.5137 673 25.6813C631.463 41.0386 590.835 58.4402 550 75.5756C524.185 86.4084 496.706 95.8289 472 109z"/>
<path style="fill:#000000; stroke:none;" d="M744 0C751.044 9.57043 762.087 17.4276 771 25.2855C785.488 38.0587 799.643 51.2472 814 64.169C838.383 86.1143 862.616 108.223 887 130.169C899.097 141.057 910.67 153.647 924 163L924 0L744 0z"/>
<path style="fill:#ffffff; stroke:none;" d="M734 327C728.238 328.647 722.827 331.309 717 332.844C703.544 336.389 688.635 337.191 675 334.335C661.699 331.548 648.878 325.503 639.17 315.829C607.766 284.538 608.593 220.685 639.171 189.09C664.028 163.404 702.298 164.407 733 177C735.535 169.073 738.619 160.337 739 152C728.922 149.668 719.349 146.523 709 145.285C684.498 142.355 657.219 145.968 636 159.065C600.797 180.793 589 218.811 589 258C589 285.549 597.16 315.322 618.089 334.572C642.34 356.877 676.168 362.556 708 358.13C715.486 357.09 722.807 355.701 730 353.329C732.506 352.503 736.386 351.729 737.933 349.351C739.313 347.23 738.165 344.214 737.626 342C736.409 337.002 735.04 332.039 734 327M290 147L290 171L350 171L350 356L376 356L376 171L437 171L437 147L290 147M457 148L457 356L568 356L568 333L483 333L483 259L560 259L560 236L483 236L483 171L564 171L564 148L457 148z"/>
<path style="fill:#000000; stroke:none;" d="M923 166C914.591 186.197 902.719 205.751 892.309 225C871.771 262.974 851.663 301.443 832.248 340C822.296 359.763 812.289 379.725 801.424 399C797.842 405.356 795.227 415.521 789.61 420.298C786.761 422.721 782.499 423.423 779 424.421L761 429.709C738.981 436.038 716.898 442.291 695 449.025C637.934 466.572 580.416 483.052 523 499.421C506.318 504.178 489.581 508.926 473 514.025C462.614 517.218 451.753 521.418 441 523C445.215 524.769 450.464 524 455 524L483 524L582 524L924 524L924 271L924 198L924 177C924 173.298 924.441 169.434 923 166z"/>
<path style="fill:#ffffff; stroke:none;" d="M1 203C2.15803 210.841 5.35242 218.408 7.57562 226C12.4753 242.733 17.8014 259.35 22.9745 276C24.7302 281.651 26.5041 287.314 28.1412 293C28.9816 295.919 29.6354 300.153 31.8434 302.397C34.9343 305.537 42.9445 304 47 304C48.9823 295.431 52.5336 287.315 55.3326 279C60.713 263.016 66.0001 247 71.3333 231C74.3638 221.909 78.598 212.493 80 203C76.2547 203 68.8724 201.574 66.0856 204.603C61.4098 209.686 60.1691 221.493 58 228C51.5522 247.343 44.1378 267.006 40 287C33.0007 268.447 28.5799 248.109 23.1404 229C21.5209 223.311 19.7663 217.653 18.0247 212C17.3011 209.651 16.9162 206.443 15.1458 204.603C12.2385 201.582 4.8338 203 1 203M74 304L88 304C90.4883 293.244 95.5209 282.975 97 272L120 272C122.943 272.001 126.96 271.39 129.298 273.603C133.837 277.902 135.446 289.125 137.141 295C137.87 297.527 138.454 301.286 140.702 302.972C143.759 305.265 150.365 304 154 304C153.226 295.131 149.041 286.44 146.344 278C141.662 263.345 137.194 248.597 132.333 234C130.34 228.014 128.198 222.056 126.424 216C125.431 212.607 124.812 208.243 122.722 205.318C120.297 201.923 111.784 202.253 108.144 203.318C105.098 204.209 104.533 207.332 103.657 210.001C101.795 215.67 99.7964 221.301 98.0255 227C93.145 242.705 88.2004 258.396 83 274C79.7901 283.632 75.4821 293.964 74 304M169 203L169 304L181 304C181 276.635 180.563 249.291 180 222C191.155 241.112 201.447 260.824 212.576 280C215.477 285 218.416 289.98 221.281 295C222.836 297.725 224.388 301.323 227.21 302.972C230.645 304.979 236.163 304 240 304L240 203L228 203L229 283C218.039 263.739 207.838 244.075 196.4 225C192.845 219.073 188.9 207.597 182.79 204.028C179.142 201.897 173.082 203 169 203M251 203L251 215L280 215L280 304L293 304L293 215L322 215L322 203L251 203z"/>
<path style="fill:#000000; stroke:none;" d="M113 217C110.947 232.245 104.67 247.395 100 262L127 262C125.557 252.226 121.351 242.41 118.344 233C116.667 227.75 115.88 221.714 113 217z"/>
</svg>
